<svg xmlns="http://www.w3.org/2000/svg" width="920" height="560" viewBox="0 0 920 560">

            <style>
            .title { font: 700 22px -apple-system, BlinkMacSystemFont, "Segoe UI", sans-serif; fill: #0f172a; }
            .subtitle { font: 400 12px -apple-system, BlinkMacSystemFont, "Segoe UI", sans-serif; fill: #475569; }
            .axis { stroke: #334155; stroke-width: 1.25; }
            .grid { stroke: #e2e8f0; stroke-width: 1; }
            .tick { font: 11px -apple-system, BlinkMacSystemFont, "Segoe UI", sans-serif; fill: #475569; }
            .label { font: 12px -apple-system, BlinkMacSystemFont, "Segoe UI", sans-serif; fill: #334155; }
            .legend { font: 12px -apple-system, BlinkMacSystemFont, "Segoe UI", sans-serif; fill: #0f172a; }
            .note { font: 11px -apple-system, BlinkMacSystemFont, "Segoe UI", sans-serif; fill: #64748b; }
            .small { font: 10px -apple-system, BlinkMacSystemFont, "Segoe UI", sans-serif; fill: #475569; }
            </style>
            
<rect x="0.00" y="0.00" width="920.00" height="560.00" fill="#ffffff" stroke="none" stroke-width="1" rx="0" opacity="1.0"/>
<text x="40.00" y="34.00" class="title" text-anchor="start">Figure 3. Skill Exposure and Normalized Outcomes</text>
<text x="40.00" y="54.00" class="subtitle" text-anchor="start">Average normalized finding density by skill-count bucket</text>
<line x1="70.00" y1="500.00" x2="890.00" y2="500.00" stroke="#e2e8f0" stroke-width="1" opacity="1.0"/>
<text x="62.00" y="504.00" class="tick" text-anchor="end">0.00</text>
<line x1="70.00" y1="390.67" x2="890.00" y2="390.67" stroke="#e2e8f0" stroke-width="1" opacity="1.0"/>
<text x="62.00" y="394.67" class="tick" text-anchor="end">0.20</text>
<line x1="70.00" y1="281.33" x2="890.00" y2="281.33" stroke="#e2e8f0" stroke-width="1" opacity="1.0"/>
<text x="62.00" y="285.33" class="tick" text-anchor="end">0.40</text>
<line x1="70.00" y1="172.00" x2="890.00" y2="172.00" stroke="#e2e8f0" stroke-width="1" opacity="1.0"/>
<text x="62.00" y="176.00" class="tick" text-anchor="end">0.60</text>
<line x1="70.00" y1="90.00" x2="70.00" y2="500.00" stroke="#334155" stroke-width="1.4" opacity="1.0"/>
<line x1="70.00" y1="500.00" x2="890.00" y2="500.00" stroke="#334155" stroke-width="1.4" opacity="1.0"/>
<text x="480.00" y="540.00" class="label" text-anchor="middle">Skill-count bucket</text>
<text x="22.00" y="295.00" class="label" text-anchor="middle" transform="rotate(-90.00 22.00 295.00)">Average normalized finding density</text>
<rect x="126.04" y="464.01" width="45.92" height="35.99" fill="#0284c7" stroke="none" stroke-width="1" rx="4" opacity="1.0"/>
<text x="149.00" y="458.01" class="small" text-anchor="middle">0.07</text>
<rect x="177.96" y="500.00" width="45.92" height="0.00" fill="#f97316" stroke="none" stroke-width="1" rx="4" opacity="1.0"/>
<text x="200.92" y="494.00" class="small" text-anchor="middle">0.00</text>
<text x="152.00" y="518.00" class="tick" text-anchor="middle">0</text>
<rect x="290.04" y="446.35" width="45.92" height="53.65" fill="#0284c7" stroke="none" stroke-width="1" rx="4" opacity="1.0"/>
<text x="313.00" y="440.35" class="small" text-anchor="middle">0.10</text>
<rect x="341.96" y="391.44" width="45.92" height="108.56" fill="#f97316" stroke="none" stroke-width="1" rx="4" opacity="1.0"/>
<text x="364.92" y="385.44" class="small" text-anchor="middle">0.20</text>
<text x="316.00" y="518.00" class="tick" text-anchor="middle">1-4</text>
<rect x="454.04" y="365.84" width="45.92" height="134.16" fill="#0284c7" stroke="none" stroke-width="1" rx="4" opacity="1.0"/>
<text x="477.00" y="359.84" class="small" text-anchor="middle">0.25</text>
<rect x="505.96" y="301.73" width="45.92" height="198.27" fill="#f97316" stroke="none" stroke-width="1" rx="4" opacity="1.0"/>
<text x="528.92" y="295.73" class="small" text-anchor="middle">0.36</text>
<text x="480.00" y="518.00" class="tick" text-anchor="middle">5-19</text>
<rect x="618.04" y="300.05" width="45.92" height="199.95" fill="#0284c7" stroke="none" stroke-width="1" rx="4" opacity="1.0"/>
<text x="641.00" y="294.05" class="small" text-anchor="middle">0.37</text>
<rect x="669.96" y="262.07" width="45.92" height="237.93" fill="#f97316" stroke="none" stroke-width="1" rx="4" opacity="1.0"/>
<text x="692.92" y="256.07" class="small" text-anchor="middle">0.44</text>
<text x="644.00" y="518.00" class="tick" text-anchor="middle">20-99</text>
<rect x="782.04" y="318.10" width="45.92" height="181.90" fill="#0284c7" stroke="none" stroke-width="1" rx="4" opacity="1.0"/>
<text x="805.00" y="312.10" class="small" text-anchor="middle">0.33</text>
<rect x="833.96" y="303.17" width="45.92" height="196.83" fill="#f97316" stroke="none" stroke-width="1" rx="4" opacity="1.0"/>
<text x="856.92" y="297.17" class="small" text-anchor="middle">0.36</text>
<text x="808.00" y="518.00" class="tick" text-anchor="middle">100+</text>
<rect x="614.00" y="92.00" width="240.00" height="40.00" fill="#ffffff" stroke="#e2e8f0" stroke-width="1" rx="8" opacity="1.0"/>
<rect x="630.00" y="102.00" width="18.00" height="12.00" fill="#0284c7" stroke="none" stroke-width="1" rx="2" opacity="1.0"/>
<text x="658.00" y="112.00" class="legend" text-anchor="start">Per instruction-surface file</text>
<rect x="630.00" y="122.00" width="18.00" height="12.00" fill="#f97316" stroke="none" stroke-width="1" rx="2" opacity="1.0"/>
<text x="658.00" y="132.00" class="legend" text-anchor="start">Per skill file</text>
<text x="70.00" y="544.00" class="note" text-anchor="start">Normalization weakens the raw count effect, but the exposure gradient remains positive.</text>
</svg>